<?xml version="1.0" encoding="utf-8"?>
<svg width="248" height="23" viewBox="0 0 248 23" fill="none" xmlns="http://www.w3.org/2000/svg">
  <g>
    <path d="M8.752 9.416C8.83701 9.416 8.91499 9.4507 8.98399 9.52C8.98399 9.52 9.592 10.184 9.592 10.184C9.123 10.728 8.552 11.152 7.88 11.456C7.213 11.76 6.408 11.912 5.464 11.912C4.63699 11.912 3.888 11.7707 3.216 11.488C2.54401 11.2 1.97099 10.8 1.496 10.288C1.021 9.7707 0.653 9.152 0.391998 8.432C0.130997 7.712 0 6.92 0 6.056C0 5.192 0.138992 4.4 0.416 3.68C0.699005 2.96 1.093 2.34133 1.60001 1.824C2.10699 1.30667 2.71201 0.90667 3.416 0.624C4.125 0.335999 4.907 0.191999 5.75999 0.191999C6.603 0.191999 7.328 0.32267 7.936 0.584C8.549 0.845329 9.093 1.2 9.56799 1.648C9.56799 1.648 9.064 2.36 9.064 2.36C9.02699 2.41333 8.98399 2.45867 8.936 2.496C8.888 2.528 8.819 2.544 8.728 2.544C8.659 2.544 8.584 2.52 8.504 2.472C8.429 2.41867 8.339 2.35467 8.23199 2.28C8.125 2.20533 8 2.12533 7.856 2.04C7.71201 1.95467 7.541 1.87467 7.34399 1.8C7.147 1.72533 6.91699 1.664 6.65601 1.616C6.395 1.56267 6.093 1.536 5.752 1.536C5.13899 1.536 4.576 1.64267 4.064 1.856C3.55699 2.064 3.12 2.36267 2.752 2.752C2.384 3.14133 2.09599 3.616 1.888 4.176C1.685 4.736 1.584 5.3627 1.584 6.056C1.584 6.7707 1.685 7.408 1.888 7.968C2.09599 8.528 2.37599 9.0027 2.728 9.392C3.08499 9.776 3.507 10.0693 3.992 10.272C4.47701 10.4747 5 10.576 5.56 10.576C5.901 10.576 6.20799 10.5573 6.48 10.52C6.752 10.4773 7.00301 10.4133 7.23199 10.328C7.467 10.2427 7.683 10.136 7.88 10.008C8.08299 9.8747 8.285 9.7173 8.48799 9.536C8.57899 9.456 8.66699 9.416 8.752 9.416ZM11.401 11.784C11.401 11.784 11.401 0 11.401 0L12.825 0C12.825 0 12.825 4.768 12.825 4.768C13.172 4.4 13.556 4.10667 13.977 3.888C14.398 3.664 14.884 3.552 15.433 3.552C15.876 3.552 16.265 3.62667 16.601 3.776C16.942 3.92 17.225 4.128 17.449 4.4C17.678 4.66667 17.852 4.9893 17.969 5.368C18.086 5.7467 18.145 6.1653 18.145 6.624C18.145 6.624 18.145 11.784 18.145 11.784L16.721 11.784C16.721 11.784 16.721 6.624 16.721 6.624C16.721 6.0107 16.58 5.536 16.297 5.2C16.02 4.8587 15.593 4.688 15.017 4.688C14.596 4.688 14.201 4.7893 13.833 4.992C13.47 5.1947 13.134 5.4693 12.825 5.816C12.825 5.816 12.825 11.784 12.825 11.784C12.825 11.784 11.401 11.784 11.401 11.784ZM23.5 3.552C23.985 3.552 24.433 3.63467 24.844 3.8C25.254 3.96 25.609 4.19467 25.908 4.504C26.206 4.808 26.438 5.1867 26.604 5.64C26.774 6.088 26.86 6.6 26.86 7.176C26.86 7.4 26.836 7.5493 26.788 7.624C26.74 7.6987 26.649 7.736 26.516 7.736C26.516 7.736 21.124 7.736 21.124 7.736C21.134 8.248 21.204 8.6933 21.332 9.072C21.46 9.4507 21.636 9.768 21.86 10.024C22.084 10.2747 22.35 10.464 22.66 10.592C22.969 10.7147 23.316 10.776 23.7 10.776C24.057 10.776 24.364 10.736 24.62 10.656C24.881 10.5707 25.105 10.48 25.292 10.384C25.478 10.288 25.633 10.2 25.756 10.12C25.884 10.0347 25.993 9.992 26.084 9.992C26.201 9.992 26.292 10.0373 26.356 10.128C26.356 10.128 26.756 10.648 26.756 10.648C26.58 10.8613 26.369 11.048 26.124 11.208C25.878 11.3627 25.614 11.4907 25.332 11.592C25.054 11.6933 24.766 11.768 24.468 11.816C24.169 11.8693 23.873 11.896 23.58 11.896C23.02 11.896 22.502 11.8027 22.028 11.616C21.558 11.424 21.15 11.1467 20.804 10.784C20.462 10.416 20.196 9.9627 20.004 9.424C19.812 8.8853 19.716 8.2667 19.716 7.568C19.716 7.0027 19.801 6.4747 19.972 5.984C20.148 5.4933 20.398 5.0693 20.724 4.712C21.049 4.34933 21.446 4.06667 21.916 3.864C22.385 3.656 22.913 3.552 23.5 3.552ZM23.532 4.6C22.844 4.6 22.302 4.8 21.908 5.2C21.513 5.5947 21.268 6.144 21.172 6.848C21.172 6.848 25.58 6.848 25.58 6.848C25.58 6.5173 25.534 6.216 25.444 5.944C25.353 5.6667 25.22 5.4293 25.044 5.232C24.868 5.0293 24.652 4.8747 24.396 4.768C24.145 4.656 23.857 4.6 23.532 4.6ZM34.21 5.12C34.168 5.1787 34.125 5.224 34.082 5.256C34.04 5.288 33.978 5.304 33.898 5.304C33.818 5.304 33.73 5.272 33.634 5.208C33.544 5.1387 33.426 5.064 33.282 4.984C33.138 4.904 32.962 4.832 32.754 4.768C32.552 4.69867 32.301 4.664 32.002 4.664C31.608 4.664 31.258 4.736 30.954 4.88C30.65 5.0187 30.394 5.2213 30.186 5.488C29.984 5.7547 29.829 6.0773 29.722 6.456C29.621 6.8347 29.57 7.2587 29.57 7.728C29.57 8.2187 29.626 8.656 29.738 9.04C29.85 9.4187 30.008 9.7387 30.21 10C30.413 10.256 30.658 10.4533 30.946 10.592C31.24 10.7253 31.568 10.792 31.93 10.792C32.277 10.792 32.562 10.752 32.786 10.672C33.01 10.5867 33.197 10.4933 33.346 10.392C33.496 10.2907 33.618 10.2 33.714 10.12C33.81 10.0347 33.906 9.992 34.002 9.992C34.125 9.992 34.216 10.0373 34.274 10.128C34.274 10.128 34.674 10.648 34.674 10.648C34.322 11.08 33.882 11.3973 33.354 11.6C32.826 11.7973 32.269 11.896 31.682 11.896C31.176 11.896 30.704 11.8027 30.266 11.616C29.834 11.4293 29.458 11.16 29.138 10.808C28.818 10.4507 28.565 10.0133 28.378 9.496C28.197 8.9787 28.106 8.3893 28.106 7.728C28.106 7.1253 28.189 6.568 28.354 6.056C28.525 5.544 28.77 5.104 29.09 4.736C29.416 4.36267 29.816 4.072 30.29 3.864C30.765 3.656 31.309 3.552 31.922 3.552C32.488 3.552 32.989 3.64533 33.426 3.832C33.864 4.01333 34.25 4.272 34.586 4.608C34.586 4.608 34.21 5.12 34.21 5.12ZM37.631 0C37.631 0 37.631 6.936 37.631 6.936C37.631 6.936 37.999 6.936 37.999 6.936C38.106 6.936 38.194 6.9227 38.263 6.896C38.332 6.864 38.41 6.8027 38.495 6.712C38.495 6.712 41.055 3.968 41.055 3.968C41.135 3.88267 41.215 3.81333 41.295 3.76C41.375 3.70667 41.482 3.68 41.615 3.68C41.615 3.68 42.911 3.68 42.911 3.68C42.911 3.68 39.927 6.856 39.927 6.856C39.852 6.9467 39.778 7.0267 39.703 7.096C39.634 7.1653 39.554 7.2267 39.463 7.28C39.559 7.344 39.644 7.4187 39.719 7.504C39.799 7.584 39.874 7.6773 39.943 7.784C39.943 7.784 43.111 11.784 43.111 11.784C43.111 11.784 41.831 11.784 41.831 11.784C41.714 11.784 41.612 11.7627 41.527 11.72C41.447 11.672 41.37 11.6 41.295 11.504C41.295 11.504 38.631 8.184 38.631 8.184C38.551 8.072 38.471 8 38.391 7.968C38.311 7.9307 38.191 7.912 38.031 7.912C38.031 7.912 37.631 7.912 37.631 7.912L37.631 11.784L36.199 11.784L36.199 0C36.199 0 37.631 0 37.631 0ZM44.59 11.784C44.59 11.784 44.59 0 44.59 0L46.022 0C46.022 0 46.022 4.848 46.022 4.848C46.358 4.45867 46.742 4.14667 47.174 3.912C47.611 3.672 48.11 3.552 48.67 3.552C49.139 3.552 49.563 3.64 49.942 3.816C50.32 3.992 50.643 4.256 50.91 4.608C51.176 4.9547 51.382 5.3867 51.526 5.904C51.67 6.416 51.742 7.008 51.742 7.68C51.742 8.2773 51.662 8.8347 51.502 9.352C51.342 9.864 51.11 10.3093 50.806 10.688C50.507 11.0613 50.139 11.3573 49.702 11.576C49.27 11.7893 48.782 11.896 48.238 11.896C47.715 11.896 47.27 11.7947 46.902 11.592C46.539 11.3893 46.222 11.1067 45.95 10.744C45.95 10.744 45.878 11.48 45.878 11.48C45.835 11.6827 45.712 11.784 45.51 11.784C45.51 11.784 44.59 11.784 44.59 11.784ZM48.206 4.688C47.742 4.688 47.334 4.7947 46.982 5.008C46.635 5.2213 46.315 5.5227 46.022 5.912C46.022 5.912 46.022 9.832 46.022 9.832C46.278 10.184 46.56 10.432 46.87 10.576C47.184 10.72 47.534 10.792 47.918 10.792C48.675 10.792 49.256 10.5227 49.662 9.984C50.067 9.4453 50.27 8.6773 50.27 7.68C50.27 7.152 50.222 6.6987 50.126 6.32C50.035 5.9413 49.902 5.632 49.726 5.392C49.55 5.1467 49.334 4.968 49.078 4.856C48.822 4.744 48.531 4.688 48.206 4.688ZM56.759 3.552C57.351 3.552 57.885 3.65067 58.359 3.848C58.839 4.04533 59.245 4.32533 59.575 4.688C59.911 5.0507 60.167 5.4907 60.343 6.008C60.525 6.52 60.615 7.0933 60.615 7.728C60.615 8.368 60.525 8.944 60.343 9.456C60.167 9.968 59.911 10.4053 59.575 10.768C59.245 11.1307 58.839 11.4107 58.359 11.608C57.885 11.8 57.351 11.896 56.759 11.896C56.167 11.896 55.631 11.8 55.151 11.608C54.677 11.4107 54.271 11.1307 53.935 10.768C53.599 10.4053 53.341 9.968 53.159 9.456C52.978 8.944 52.887 8.368 52.887 7.728C52.887 7.0933 52.978 6.52 53.159 6.008C53.341 5.4907 53.599 5.0507 53.935 4.688C54.271 4.32533 54.677 4.04533 55.151 3.848C55.631 3.65067 56.167 3.552 56.759 3.552ZM56.759 10.784C57.559 10.784 58.157 10.5173 58.551 9.984C58.946 9.4453 59.143 8.696 59.143 7.736C59.143 6.7707 58.946 6.0187 58.551 5.48C58.157 4.9413 57.559 4.672 56.759 4.672C56.354 4.672 56.002 4.74133 55.703 4.88C55.405 5.0187 55.154 5.2187 54.951 5.48C54.754 5.7413 54.605 6.064 54.503 6.448C54.407 6.8267 54.359 7.256 54.359 7.736C54.359 8.216 54.407 8.6453 54.503 9.024C54.605 9.4027 54.754 9.7227 54.951 9.984C55.154 10.24 55.405 10.4373 55.703 10.576C56.002 10.7147 56.354 10.784 56.759 10.784ZM63.782 7.632C63.782 7.632 61.054 3.68 61.054 3.68C61.054 3.68 62.422 3.68 62.422 3.68C62.539 3.68 62.624 3.69867 62.678 3.736C62.731 3.77333 62.779 3.82667 62.822 3.896C62.822 3.896 64.806 6.936 64.806 6.936C64.854 6.7867 64.923 6.6373 65.014 6.488C65.014 6.488 66.758 3.928 66.758 3.928C66.811 3.85333 66.864 3.79467 66.918 3.752C66.971 3.704 67.038 3.68 67.118 3.68C67.118 3.68 68.43 3.68 68.43 3.68L65.702 7.552L68.542 11.784C68.542 11.784 67.174 11.784 67.174 11.784C67.056 11.784 66.963 11.7547 66.894 11.696C66.83 11.632 66.776 11.5627 66.734 11.488C66.734 11.488 64.694 8.312 64.694 8.312C64.656 8.4667 64.6 8.6053 64.526 8.728C64.526 8.728 62.638 11.488 62.638 11.488C62.584 11.5627 62.526 11.632 62.462 11.696C62.403 11.7547 62.32 11.784 62.214 11.784C62.214 11.784 60.942 11.784 60.942 11.784C60.942 11.784 63.782 7.632 63.782 7.632ZM76.682 0.191999C77.167 0.191999 77.62 0.263999 78.042 0.408C78.463 0.552 78.826 0.76267 79.13 1.04C79.439 1.312 79.682 1.64533 79.858 2.04C80.034 2.43467 80.122 2.88267 80.122 3.384C80.122 3.81067 80.058 4.20533 79.93 4.568C79.802 4.9307 79.628 5.28 79.41 5.616C79.191 5.9467 78.938 6.2693 78.65 6.584C78.367 6.8933 78.066 7.2107 77.746 7.536C77.746 7.536 74.73 10.624 74.73 10.624C74.943 10.5653 75.159 10.52 75.378 10.488C75.596 10.4507 75.807 10.432 76.01 10.432C76.01 10.432 79.85 10.432 79.85 10.432C80.004 10.432 80.127 10.4773 80.218 10.568C80.308 10.6587 80.354 10.776 80.354 10.92C80.354 10.92 80.354 11.784 80.354 11.784L72.706 11.784C72.706 11.784 72.706 11.296 72.706 11.296C72.706 11.1947 72.724 11.0907 72.762 10.984C72.804 10.8773 72.871 10.7787 72.962 10.688C72.962 10.688 76.634 7 76.634 7C76.938 6.6907 77.215 6.3947 77.466 6.112C77.716 5.824 77.93 5.536 78.106 5.248C78.287 4.96 78.426 4.66933 78.522 4.376C78.618 4.07733 78.666 3.76 78.666 3.424C78.666 3.088 78.612 2.79467 78.506 2.544C78.399 2.288 78.252 2.07733 78.066 1.912C77.879 1.74667 77.66 1.624 77.41 1.544C77.159 1.45867 76.89 1.416 76.602 1.416C76.314 1.416 76.047 1.45867 75.802 1.544C75.556 1.62933 75.338 1.74933 75.146 1.904C74.959 2.05333 74.799 2.232 74.666 2.44C74.538 2.648 74.447 2.87733 74.394 3.128C74.351 3.28267 74.287 3.39467 74.202 3.464C74.116 3.53333 74.004 3.568 73.866 3.568C73.839 3.568 73.81 3.568 73.778 3.568C73.751 3.56267 73.719 3.55733 73.682 3.552C73.682 3.552 72.938 3.424 72.938 3.424C73.012 2.90133 73.156 2.44 73.37 2.04C73.583 1.63467 73.852 1.296 74.178 1.024C74.508 0.751999 74.884 0.546669 75.306 0.408C75.732 0.263999 76.191 0.191999 76.682 0.191999Z" fill="#000000" transform="translate(166.72 5.716)" />
    <path d="M0 7L0 3.5C0 2.5335 0.341705 1.70854 1.02513 1.02513C1.70854 0.341709 2.53351 0 3.5 0L17.5 0C18.4665 0 19.2915 0.341709 19.9749 1.02513C20.6583 1.70854 21 2.5335 21 3.5L21 17.5C21 18.4665 20.6583 19.2915 19.9749 19.9749C19.2915 20.6583 18.4665 21 17.5 21L3.5 21C2.53351 21 1.70854 20.6583 1.02513 19.9749C0.341705 19.2915 0 18.4665 0 17.5L0 7Z" fill="#8B8B8B" fill-rule="evenodd" stroke-width="1" stroke="#D8D8D8" transform="translate(136.5 1)" />
    <path d="M8.752 9.416C8.8373 9.416 8.9147 9.4507 8.984 9.52C8.984 9.52 9.592 10.184 9.592 10.184C9.1227 10.728 8.552 11.152 7.88 11.456C7.2133 11.76 6.408 11.912 5.464 11.912C4.6373 11.912 3.888 11.7707 3.216 11.488C2.544 11.2 1.9707 10.8 1.496 10.288C1.0213 9.7707 0.653299 9.152 0.392 8.432C0.130701 7.712 0 6.92 0 6.056C0 5.192 0.1387 4.4 0.416002 3.68C0.698702 2.96 1.0933 2.34133 1.6 1.824C2.1067 1.30667 2.712 0.906671 3.416 0.624001C4.1253 0.336 4.9067 0.192 5.76 0.192C6.6027 0.192 7.328 0.32267 7.936 0.584001C8.5493 0.84533 9.0933 1.2 9.568 1.648C9.568 1.648 9.064 2.36 9.064 2.36C9.0267 2.41333 8.984 2.45867 8.936 2.496C8.888 2.528 8.8187 2.544 8.728 2.544C8.6587 2.544 8.584 2.52 8.504 2.472C8.4293 2.41867 8.3387 2.35467 8.232 2.28C8.1253 2.20533 8 2.12533 7.856 2.04C7.712 1.95467 7.5413 1.87467 7.344 1.8C7.1467 1.72533 6.9173 1.664 6.656 1.616C6.3947 1.56267 6.0933 1.536 5.752 1.536C5.1387 1.536 4.576 1.64267 4.064 1.856C3.5573 2.064 3.12 2.36267 2.752 2.752C2.384 3.14133 2.096 3.616 1.888 4.176C1.6853 4.736 1.584 5.3627 1.584 6.056C1.584 6.7707 1.6853 7.408 1.888 7.968C2.096 8.528 2.376 9.0027 2.728 9.392C3.0853 9.776 3.5067 10.0693 3.992 10.272C4.4773 10.4747 5 10.576 5.56 10.576C5.9013 10.576 6.208 10.5573 6.48 10.52C6.752 10.4773 7.0027 10.4133 7.232 10.328C7.4667 10.2427 7.6827 10.136 7.88 10.008C8.0827 9.8747 8.2853 9.7173 8.488 9.536C8.5787 9.456 8.6667 9.416 8.752 9.416ZM11.4011 11.784C11.4011 11.784 11.4011 0 11.4011 0L12.8251 0C12.8251 0 12.8251 4.768 12.8251 4.768C13.1718 4.4 13.5558 4.10667 13.9771 3.888C14.3985 3.664 14.8838 3.552 15.4331 3.552C15.8758 3.552 16.2651 3.62667 16.6011 3.776C16.9425 3.92 17.2251 4.128 17.4491 4.4C17.6785 4.66667 17.8518 4.9893 17.9691 5.368C18.0865 5.7467 18.1451 6.1653 18.1451 6.624C18.1451 6.624 18.1451 11.784 18.1451 11.784L16.7211 11.784C16.7211 11.784 16.7211 6.624 16.7211 6.624C16.7211 6.0107 16.5798 5.536 16.2971 5.2C16.0198 4.8587 15.5931 4.688 15.0171 4.688C14.5958 4.688 14.2011 4.7893 13.8331 4.992C13.4705 5.1947 13.1345 5.4693 12.8251 5.816C12.8251 5.816 12.8251 11.784 12.8251 11.784C12.8251 11.784 11.4011 11.784 11.4011 11.784ZM23.4998 3.552C23.9851 3.552 24.4331 3.63467 24.8438 3.8C25.2544 3.96 25.6091 4.19467 25.9078 4.504C26.2064 4.808 26.4384 5.1867 26.6038 5.64C26.7744 6.088 26.8598 6.6 26.8598 7.176C26.8598 7.4 26.8358 7.5493 26.7878 7.624C26.7398 7.6987 26.6491 7.736 26.5158 7.736C26.5158 7.736 21.1238 7.736 21.1238 7.736C21.1344 8.248 21.2038 8.6933 21.3318 9.072C21.4598 9.4507 21.6358 9.768 21.8598 10.024C22.0838 10.2747 22.3504 10.464 22.6598 10.592C22.9691 10.7147 23.3158 10.776 23.6998 10.776C24.0571 10.776 24.3638 10.736 24.6198 10.656C24.8811 10.5707 25.1051 10.48 25.2918 10.384C25.4784 10.288 25.6331 10.2 25.7558 10.12C25.8838 10.0347 25.9931 9.992 26.0838 9.992C26.2011 9.992 26.2918 10.0373 26.3558 10.128C26.3558 10.128 26.7558 10.648 26.7558 10.648C26.5798 10.8613 26.3691 11.048 26.1238 11.208C25.8784 11.3627 25.6144 11.4907 25.3318 11.592C25.0544 11.6933 24.7664 11.768 24.4678 11.816C24.1691 11.8693 23.8731 11.896 23.5798 11.896C23.0198 11.896 22.5024 11.8027 22.0278 11.616C21.5584 11.424 21.1504 11.1467 20.8038 10.784C20.4624 10.416 20.1958 9.9627 20.0038 9.424C19.8118 8.8853 19.7158 8.2667 19.7158 7.568C19.7158 7.0027 19.8011 6.4747 19.9718 5.984C20.1478 5.4933 20.3984 5.0693 20.7238 4.712C21.0491 4.34933 21.4464 4.06667 21.9158 3.864C22.3851 3.656 22.9131 3.552 23.4998 3.552ZM23.5317 4.6C22.8438 4.6 22.3024 4.8 21.9078 5.2C21.5131 5.5947 21.2678 6.144 21.1718 6.848C21.1718 6.848 25.5798 6.848 25.5798 6.848C25.5798 6.5173 25.5344 6.216 25.4438 5.944C25.3531 5.6667 25.2198 5.4293 25.0438 5.232C24.8678 5.0293 24.6518 4.8747 24.3958 4.768C24.1451 4.656 23.8571 4.6 23.5317 4.6ZM34.2104 5.12C34.1677 5.1787 34.125 5.224 34.0824 5.256C34.0397 5.288 33.9784 5.304 33.8984 5.304C33.8184 5.304 33.7304 5.272 33.6344 5.208C33.5437 5.1387 33.4264 5.064 33.2824 4.984C33.1384 4.904 32.9624 4.832 32.7544 4.768C32.5517 4.69867 32.301 4.664 32.0024 4.664C31.6077 4.664 31.2584 4.736 30.9544 4.88C30.6504 5.0187 30.3944 5.2213 30.1864 5.488C29.9837 5.7547 29.829 6.0773 29.7224 6.456C29.621 6.8347 29.5704 7.2587 29.5704 7.728C29.5704 8.2187 29.6264 8.656 29.7384 9.04C29.8504 9.4187 30.0077 9.7387 30.2104 10C30.413 10.256 30.6584 10.4533 30.9464 10.592C31.2397 10.7253 31.5677 10.792 31.9304 10.792C32.277 10.792 32.5624 10.752 32.7864 10.672C33.0104 10.5867 33.197 10.4933 33.3464 10.392C33.4957 10.2907 33.6184 10.2 33.7144 10.12C33.8104 10.0347 33.9064 9.992 34.0024 9.992C34.125 9.992 34.2157 10.0373 34.2744 10.128C34.2744 10.128 34.6744 10.648 34.6744 10.648C34.3224 11.08 33.8824 11.3973 33.3544 11.6C32.8264 11.7973 32.269 11.896 31.6824 11.896C31.1757 11.896 30.7037 11.8027 30.2664 11.616C29.8344 11.4293 29.4584 11.16 29.1384 10.808C28.8184 10.4507 28.565 10.0133 28.3784 9.496C28.197 8.9787 28.1064 8.3893 28.1064 7.728C28.1064 7.1253 28.189 6.568 28.3544 6.056C28.525 5.544 28.7704 5.104 29.0904 4.736C29.4157 4.36267 29.8157 4.072 30.2904 3.864C30.765 3.656 31.309 3.552 31.9224 3.552C32.4877 3.552 32.989 3.64533 33.4264 3.832C33.8637 4.01333 34.2504 4.272 34.5864 4.608C34.5864 4.608 34.2104 5.12 34.2104 5.12ZM37.6311 0C37.6311 0 37.6311 6.936 37.6311 6.936C37.6311 6.936 37.9991 6.936 37.9991 6.936C38.1058 6.936 38.1938 6.9227 38.2631 6.896C38.3325 6.864 38.4098 6.8027 38.4951 6.712C38.4951 6.712 41.0551 3.968 41.0551 3.968C41.1351 3.88267 41.2151 3.81333 41.2951 3.76C41.3751 3.70667 41.4818 3.68 41.6151 3.68C41.6151 3.68 42.9111 3.68 42.9111 3.68C42.9111 3.68 39.9271 6.856 39.9271 6.856C39.8525 6.9467 39.7778 7.0267 39.7031 7.096C39.6338 7.1653 39.5538 7.2267 39.4631 7.28C39.5591 7.344 39.6445 7.4187 39.7191 7.504C39.7991 7.584 39.8738 7.6773 39.9431 7.784C39.9431 7.784 43.1111 11.784 43.1111 11.784C43.1111 11.784 41.8311 11.784 41.8311 11.784C41.7138 11.784 41.6125 11.7627 41.5271 11.72C41.4471 11.672 41.3698 11.6 41.2951 11.504C41.2951 11.504 38.6311 8.184 38.6311 8.184C38.5511 8.072 38.4711 8 38.3911 7.968C38.3111 7.9307 38.1911 7.912 38.0311 7.912C38.0311 7.912 37.6311 7.912 37.6311 7.912L37.6311 11.784L36.1991 11.784L36.1991 0C36.1991 0 37.6311 0 37.6311 0ZM44.5898 11.784C44.5898 11.784 44.5898 0 44.5898 0L46.0218 0C46.0218 0 46.0218 4.848 46.0218 4.848C46.3578 4.45867 46.7418 4.14667 47.1738 3.912C47.6111 3.672 48.1098 3.552 48.6698 3.552C49.1391 3.552 49.5631 3.64 49.9418 3.816C50.3204 3.992 50.6431 4.256 50.9098 4.608C51.1764 4.9547 51.3818 5.3867 51.5258 5.904C51.6698 6.416 51.7418 7.008 51.7418 7.68C51.7418 8.2773 51.6618 8.8347 51.5018 9.352C51.3418 9.864 51.1098 10.3093 50.8058 10.688C50.5071 11.0613 50.1391 11.3573 49.7018 11.576C49.2698 11.7893 48.7818 11.896 48.2378 11.896C47.7151 11.896 47.2698 11.7947 46.9018 11.592C46.5391 11.3893 46.2218 11.1067 45.9498 10.744C45.9498 10.744 45.8778 11.48 45.8778 11.48C45.8351 11.6827 45.7124 11.784 45.5098 11.784C45.5098 11.784 44.5898 11.784 44.5898 11.784ZM48.2058 4.688C47.7418 4.688 47.3338 4.7947 46.9818 5.008C46.6351 5.2213 46.3151 5.5227 46.0218 5.912C46.0218 5.912 46.0218 9.832 46.0218 9.832C46.2778 10.184 46.5604 10.432 46.8698 10.576C47.1844 10.72 47.5338 10.792 47.9178 10.792C48.6751 10.792 49.2564 10.5227 49.6618 9.984C50.0671 9.4453 50.2698 8.6773 50.2698 7.68C50.2698 7.152 50.2218 6.6987 50.1258 6.32C50.0351 5.9413 49.9018 5.632 49.7258 5.392C49.5498 5.1467 49.3338 4.968 49.0778 4.856C48.8218 4.744 48.5311 4.688 48.2058 4.688ZM56.7593 3.552C57.3513 3.552 57.8846 3.65067 58.3593 3.848C58.8393 4.04533 59.2446 4.32533 59.5753 4.688C59.9113 5.0507 60.1673 5.4907 60.3433 6.008C60.5246 6.52 60.6153 7.0933 60.6153 7.728C60.6153 8.368 60.5246 8.944 60.3433 9.456C60.1673 9.968 59.9113 10.4053 59.5753 10.768C59.2446 11.1307 58.8393 11.4107 58.3593 11.608C57.8846 11.8 57.3513 11.896 56.7593 11.896C56.1673 11.896 55.6313 11.8 55.1513 11.608C54.6766 11.4107 54.2713 11.1307 53.9353 10.768C53.5993 10.4053 53.3406 9.968 53.1593 9.456C52.9779 8.944 52.8873 8.368 52.8873 7.728C52.8873 7.0933 52.9779 6.52 53.1593 6.008C53.3406 5.4907 53.5993 5.0507 53.9353 4.688C54.2713 4.32533 54.6766 4.04533 55.1513 3.848C55.6313 3.65067 56.1673 3.552 56.7593 3.552ZM56.7593 10.784C57.5593 10.784 58.1566 10.5173 58.5513 9.984C58.9459 9.4453 59.1433 8.696 59.1433 7.736C59.1433 6.7707 58.9459 6.0187 58.5513 5.48C58.1566 4.9413 57.5593 4.672 56.7593 4.672C56.3539 4.672 56.0019 4.74133 55.7033 4.88C55.4046 5.0187 55.1539 5.2187 54.9513 5.48C54.7539 5.7413 54.6046 6.064 54.5033 6.448C54.4073 6.8267 54.3593 7.256 54.3593 7.736C54.3593 8.216 54.4073 8.6453 54.5033 9.024C54.6046 9.4027 54.7539 9.7227 54.9513 9.984C55.1539 10.24 55.4046 10.4373 55.7033 10.576C56.0019 10.7147 56.3539 10.784 56.7593 10.784ZM63.7815 7.632C63.7815 7.632 61.0535 3.68 61.0535 3.68C61.0535 3.68 62.4215 3.68 62.4215 3.68C62.5388 3.68 62.6242 3.69867 62.6775 3.736C62.7308 3.77333 62.7788 3.82667 62.8215 3.896C62.8215 3.896 64.8055 6.936 64.8055 6.936C64.8535 6.7867 64.9228 6.6373 65.0135 6.488C65.0135 6.488 66.7575 3.928 66.7575 3.928C66.8108 3.85333 66.8642 3.79467 66.9175 3.752C66.9708 3.704 67.0375 3.68 67.1175 3.68C67.1175 3.68 68.43 3.68 68.43 3.68L65.7015 7.552L68.542 11.784C68.542 11.784 67.1735 11.784 67.1735 11.784C67.0562 11.784 66.9628 11.7547 66.8935 11.696C66.8295 11.632 66.7762 11.5627 66.7335 11.488C66.7335 11.488 64.6935 8.312 64.6935 8.312C64.6562 8.4667 64.6002 8.6053 64.5255 8.728C64.5255 8.728 62.6375 11.488 62.6375 11.488C62.5842 11.5627 62.5255 11.632 62.4615 11.696C62.4028 11.7547 62.3202 11.784 62.2135 11.784C62.2135 11.784 60.9415 11.784 60.9415 11.784C60.9415 11.784 63.7815 7.632 63.7815 7.632ZM74.17 10.696C74.17 10.696 76.634 10.696 76.634 10.696C76.634 10.696 76.634 2.88 76.634 2.88C76.634 2.64533 76.642 2.408 76.658 2.168C76.658 2.168 74.61 3.92 74.61 3.92C74.556 3.96267 74.503 3.99467 74.45 4.016C74.396 4.032 74.346 4.04 74.298 4.04C74.218 4.04 74.146 4.024 74.082 3.992C74.018 3.95467 73.97 3.912 73.938 3.864C73.938 3.864 73.49 3.248 73.49 3.248L76.898 0.296L78.058 0.296L78.058 10.696L80.314 10.696L80.314 11.784L74.17 11.784C74.17 11.784 74.17 10.696 74.17 10.696Z" fill="#000000" transform="translate(30.72 6.044)" />
    <path d="M0 7L0 3.5C0 2.5335 0.341709 1.70854 1.02513 1.02513C1.70854 0.341709 2.5335 0 3.5 0L17.5 0C18.4665 0 19.2915 0.341709 19.9749 1.02513C20.6583 1.70854 21 2.5335 21 3.5L21 17.5C21 18.4665 20.6583 19.2915 19.9749 19.9749C19.2915 20.6583 18.4665 21 17.5 21L3.5 21C2.5335 21 1.70854 20.6583 1.02513 19.9749C0.341709 19.2915 0 18.4665 0 17.5L0 7Z" fill="#8B8B8B" fill-rule="evenodd" stroke-width="1" stroke="#D8D8D8" transform="translate(1 1.5)" />
    <path d="M13.581 2.44227C14.1397 1.88356 14.1397 0.977732 13.581 0.419033C13.0223 -0.139678 12.1164 -0.139678 11.5577 0.419033C11.5577 0.419033 5.1503 6.8264 5.1503 6.8264C5.1503 6.8264 2.44227 4.1184 2.44227 4.1184C1.88356 3.55965 0.977732 3.55965 0.419033 4.1184C-0.139678 4.6771 -0.139678 5.5829 0.419033 6.1416C0.419033 6.1416 4.11837 9.8409 4.11837 9.8409C4.64895 10.3715 5.4926 10.3982 6.0547 9.9211C6.1407 9.8661 6.2222 9.8011 6.2973 9.7259C6.2973 9.7259 13.581 2.44227 13.581 2.44227Z" fill="#FFFFFF" fill-rule="evenodd" transform="translate(4.5 6.87)" />
  </g>
</svg>